# xmcd
#
# Track frame offsets: 
#        150
#        22312
#        34966
#        53099
#        72660
#        89906
#        101541
#        119748
#        137852
#        157132
#        176795
#        203949
#        223431
#        246188
#        261828
#
# Disc length: 3713 seconds
#
# Revision: 1
# Processed by: cddbd v1.5.2PL0 Copyright (c) Steve Scherf et al.
# Submitted via: ExactAudioCopy v0.99pb5
#
DISCID=010e7f0f
DTITLE=Various Artist - LIVING THE BLUES - BLUES ROCK
DYEAR=2001
DGENRE=Blues
TTITLE0=JOHN PRIMER - Keep On Lovin' The Blues (1997)
TTITLE1=FLEETWOOD MAC - Oh Well (Alternate Version) (1998)
TTITLE2=FRED JAMES - Headed For Hard Times (1998)
TTITLE3=B.B. KING - Fool Me Once (1991)
TTITLE4=ERIC CLAPTON - Bernhard Jenkins (1966)
TTITLE5=CHICKEN SHACK FEATURING STAN WEBB - Unlucky Boy (1973)
TTITLE6=RONNIE EARL - O' Yeah (1997)
TTITLE7=SHERMAN ROBERTSON - Hard Love (1995)
TTITLE8=JONNY LANG - Good Morning Little Schoolgirl (1996)
TTITLE9=GARY MOORE - Back On The Streets (1978)
TTITLE10=PAUL LAMB and THE KINGSNAKES - She's A Killer (1996)
TTITLE11=ALLMAN BROTHERS BAND - Wasted Words (1973)
TTITLE12=BUDDY GUY - Too Broke To Spend The Night (1993)
TTITLE13=ROY BUCHANAN - Tribute To Elmore James (1973)
TTITLE14=NINE BELOW ZERO - So Cold (2000)
EXTD=
EXTT0=
EXTT1=
EXTT2=
EXTT3=
EXTT4=
EXTT5=
EXTT6=
EXTT7=
EXTT8=
EXTT9=
EXTT10=
EXTT11=
EXTT12=
EXTT13=
EXTT14=
PLAYORDER=
